<?xml version="1.0" standalone="no"?>
<!DOCTYPE svg PUBLIC "-//W3C//DTD SVG 20010904//EN"
 "http://www.w3.org/TR/2001/REC-SVG-20010904/DTD/svg10.dtd">
<svg version="1.0" xmlns="http://www.w3.org/2000/svg"
 width="512.000000pt" height="512.000000pt" viewBox="0 0 512.000000 512.000000"
 preserveAspectRatio="xMidYMid meet">
<metadata>
Created by potrace 1.11, written by Peter Selinger 2001-2013
</metadata>
<g transform="translate(0.000000,512.000000) scale(0.100000,-0.100000)"
fill="#000000" stroke="none">
<path d="M0 2560 l0 -2560 2560 0 2560 0 0 2560 0 2560 -2560 0 -2560 0 0
-2560z m2780 2419 c641 -58 1227 -368 1645 -869 423 -509 622 -1208 530 -1866
-73 -521 -310 -998 -685 -1374 -760 -763 -1942 -928 -2881 -403 -429 240 -766
596 -987 1041 -115 232 -187 461 -228 732 -25 163 -25 522 -1 680 108 688 477
1274 1042 1655 460 310 1019 454 1565 404z"/>
<path d="M2335 4940 c-470 -53 -893 -225 -1249 -508 -116 -92 -287 -261 -372
-367 -287 -359 -468 -802 -515 -1260 -15 -147 -7 -416 16 -575 139 -946 834
-1718 1760 -1955 210 -54 339 -69 590 -69 162 0 251 4 335 17 504 78 954 300
1313 646 379 366 621 839 704 1371 24 157 24 488 -1 655 -79 543 -322 1020
-708 1391 -356 341 -810 565 -1298 639 -124 19 -461 28 -575 15z m-1225 -1065
l0 -95 -95 0 -95 0 0 -492 c0 -505 -5 -593 -39 -659 -17 -32 -17 -37 -3 -65
37 -68 41 -145 42 -681 l0 -523 95 0 95 0 0 -90 0 -90 -144 0 c-132 0 -146 2
-177 23 -18 12 -39 34 -46 47 -10 19 -13 158 -14 585 0 398 -4 572 -12 600
-10 32 -20 44 -54 60 l-42 20 -1 88 0 87 28 0 c33 0 45 8 63 40 11 20 15 132
19 596 5 554 6 573 25 594 36 41 72 49 218 50 l137 0 0 -95z m3227 69 c54 -40
53 -29 53 -609 0 -297 5 -558 10 -580 10 -45 32 -65 72 -65 l28 0 0 -87 0 -88
-40 -17 c-72 -30 -70 -15 -70 -650 0 -516 -1 -566 -18 -598 -29 -58 -66 -70
-224 -70 l-138 0 0 90 0 90 95 0 95 0 0 528 c0 544 6 629 43 682 12 18 12 25
-4 58 -35 70 -39 136 -39 648 l0 504 -95 0 -95 0 0 96 0 95 149 -3 c133 -3
153 -5 178 -24z m-1511 -79 c162 -12 351 -81 489 -180 89 -63 212 -199 273
-301 28 -48 52 -93 52 -99 0 -7 -37 -29 -81 -49 -88 -41 -83 -41 -116 19 -27
50 -121 170 -161 207 -183 165 -444 245 -715 218 -130 -13 -224 -38 -320 -86
-290 -145 -486 -416 -564 -777 -26 -122 -24 -371 5 -495 68 -294 240 -547 482
-707 176 -117 289 -150 510 -149 129 0 169 4 239 23 264 71 454 211 576 426
16 28 30 52 31 54 3 4 174 -60 174 -66 0 -11 -58 -115 -91 -165 -93 -137 -242
-260 -414 -343 -103 -50 -178 -76 -297 -102 -108 -23 -359 -24 -464 0 -445
100 -819 498 -935 995 -158 680 249 1396 881 1549 105 25 259 42 335 37 22 -2
72 -6 111 -9z"/>
</g>
</svg>
